<svg width="46" height="45" viewBox="0 0 46 45" fill="none" xmlns="http://www.w3.org/2000/svg">
<g clip-path="url(#clip0_3836_4959)">
<circle cx="23" cy="22.5" r="22.5" fill="#F5516C"/>
<path fill-rule="evenodd" clip-rule="evenodd" d="M16 21C17.1046 21 18 21.8954 18 23C18 24.1046 17.1046 25 16 25C14.8954 25 14 24.1046 14 23C14 21.8954 14.8954 21 16 21ZM28.9688 21C30.0733 21 30.9688 21.8954 30.9688 23C30.9688 24.1046 30.0733 25 28.9688 25C27.8642 25 26.9688 24.1046 26.9688 23C26.9688 21.8954 27.8642 21 28.9688 21ZM24.4844 23C24.4844 21.8954 23.5889 21 22.4844 21C21.3798 21 20.4844 21.8954 20.4844 23C20.4844 24.1046 21.3798 25 22.4844 25C23.5889 25 24.4844 24.1046 24.4844 23Z" fill="white"/>
</g>
<defs>
<clipPath id="clip0_3836_4959">
<rect width="45" height="45" fill="white" transform="translate(0.5)"/>
</clipPath>
</defs>
</svg>
