<svg width="131" height="25" viewBox="0 0 131 25" fill="none" xmlns="http://www.w3.org/2000/svg">
<path d="M14.1976 9.99211H10.9632V20.5317H14.1976V9.99211Z" fill="white"/>
<path d="M21.3424 9.99211H18.1081V20.5317H21.3424V9.99211Z" fill="white"/>
<path d="M7.0527 9.99211H3.81834V20.5317H7.0527V9.99211Z" fill="white"/>
<path d="M0.000871786 7.05155L12.5136 0.5L24.9976 7.05155L25 8.53016H0L0.000871786 7.05155Z" fill="white"/>
<path d="M25 21.9923H2.03198e-07V24.8188H25V21.9923Z" fill="white"/>
<g clip-path="url(#clip0_3809_3998)">
<path d="M45 5.65942L43.59 7.06942L48.17 11.6594L32 11.6594L32 13.6594L48.17 13.6594L43.58 18.2494L45 19.6594L52 12.6594L45 5.65942Z" fill="#9AA5B8"/>
</g>
<path fill-rule="evenodd" clip-rule="evenodd" d="M94.0094 5.69541V11.5558H103.447V15.6657H94.0094V23.8094H88.834V1.5094H105.654V5.61931H94.0094V5.69541ZM75.0578 1.73767H66.9902V6.22811H73.764C77.3411 6.22811 80.3094 9.19638 80.3094 12.7735C80.3094 16.3507 77.3411 19.3189 73.764 19.3189H66.9902V23.8094H74.8295C80.9943 23.8094 85.9414 18.8623 85.9414 12.6974C85.9414 6.60866 81.0705 1.73767 75.0578 1.73767ZM118.745 16.0463L124.149 23.8094V23.7333H130.009L121.713 12.2408L129.476 1.5094H123.92L118.897 8.73978L113.798 1.5094H107.937L115.777 12.4691L107.557 23.8094H113.493L118.745 16.0463Z" fill="white"/>
<path d="M69.5035 7.06555C69.3512 7.06555 69.199 7.06555 68.9707 7.06555C70.7212 8.2833 71.939 10.3382 71.939 12.6976C71.939 15.057 70.7973 17.112 68.9707 18.3297C69.1229 18.3297 69.2751 18.3297 69.5035 18.3297C72.6239 18.3297 75.1356 15.8181 75.1356 12.6976C75.1356 9.57715 72.6239 7.06555 69.5035 7.06555Z" fill="white"/>
<path d="M71.1775 12.6973C71.1775 16.0461 68.4376 18.786 65.0887 18.786C61.7399 18.786 59 16.0461 59 12.6973C59 9.34845 61.7399 6.60852 65.0887 6.60852C68.5137 6.60852 71.1775 9.34845 71.1775 12.6973Z" fill="white"/>
<defs>
<clipPath id="clip0_3809_3998">
<rect width="24" height="24" fill="white" transform="translate(54 24.6594) rotate(180)"/>
</clipPath>
</defs>
</svg>
