<svg width="35" height="12" viewBox="0 0 35 12" fill="none" xmlns="http://www.w3.org/2000/svg">
<path fill-rule="evenodd" clip-rule="evenodd" d="M17.0893 0H34.3393L30.375 12H13.125L17.0893 0ZM23.8378 9.02057C22.6146 9.02057 21.7667 8.35953 21.5522 7.3945H24.3592L24.6565 6.46807H21.5279C21.5522 6.31367 21.5864 6.15927 21.6351 6.00486C21.6838 5.85046 21.7472 5.69605 21.8203 5.54165H24.9489L25.2462 4.61522H22.4392C23.2725 3.65019 24.5493 2.98915 25.7676 2.98915C26.5522 2.98915 27.1857 3.26418 27.5951 3.71774L28.7208 2.89747C28.1603 2.2316 27.2588 1.83111 26.138 1.83111C24.2325 1.82146 22.2394 2.98915 21.1185 4.60557H19.4032L19.1059 5.532H20.5971C20.5289 5.6864 20.4704 5.84081 20.4217 5.99521C20.3729 6.14961 20.3339 6.30402 20.3047 6.45842H18.8086L18.5114 7.38485H20.2267C20.3144 9.0061 21.5571 10.169 23.4674 10.169C24.5931 10.169 25.7481 9.76364 26.7325 9.1026L26.1282 8.28233C25.4313 8.73589 24.6273 9.01092 23.8378 9.01092V9.02057ZM4.69611 3.15H13.6961V1.35H4.69611V3.15ZM0 6.9H9V5.1H0V6.9ZM5 10.65H11V8.85H5V10.65Z" fill="#072440"/>
</svg>
