<svg width="35" height="13" viewBox="0 0 35 13" fill="none" xmlns="http://www.w3.org/2000/svg">
<path fill-rule="evenodd" clip-rule="evenodd" d="M17.0893 0.5H34.3393L30.375 12.5H13.125L17.0893 0.5ZM23.8378 9.52057C22.6146 9.52057 21.7667 8.85953 21.5522 7.8945H24.3592L24.6565 6.96807H21.5279C21.5522 6.81367 21.5864 6.65927 21.6351 6.50486C21.6838 6.35046 21.7472 6.19605 21.8203 6.04165H24.9489L25.2462 5.11522H22.4392C23.2725 4.15019 24.5493 3.48915 25.7676 3.48915C26.5522 3.48915 27.1857 3.76418 27.5951 4.21774L28.7208 3.39747C28.1603 2.7316 27.2588 2.33111 26.138 2.33111C24.2325 2.32146 22.2394 3.48915 21.1185 5.10557H19.4032L19.1059 6.032H20.5971C20.5289 6.1864 20.4704 6.34081 20.4217 6.49521C20.3729 6.64961 20.3339 6.80402 20.3047 6.95842H18.8086L18.5114 7.88485H20.2267C20.3144 9.5061 21.5571 10.669 23.4674 10.669C24.5931 10.669 25.7481 10.2636 26.7325 9.6026L26.1282 8.78233C25.4313 9.23589 24.6273 9.51092 23.8378 9.51092V9.52057ZM4.69611 3.65H13.6961V1.85H4.69611V3.65ZM0 7.4H9V5.6H0V7.4ZM5 11.15H11V9.35H5V11.15Z" fill="white"/>
</svg>
