<svg width="148" height="59" viewBox="0 0 148 59" fill="none" xmlns="http://www.w3.org/2000/svg">
<path d="M42.0195 16.711L42.0334 12.0394C42.0445 8.31654 39.4207 3.77849 36.182 1.90595C32.9378 0.0334084 30.3029 1.53589 30.2918 5.25871L30.2778 9.93032L27.565 8.36384L27.5205 24.3792L44.2315 34.0285L44.276 18.0131L42.0222 16.711H42.0195ZM32.6039 6.59425C32.6095 4.34331 34.2093 3.43069 36.1737 4.5659C38.1325 5.69833 39.7268 8.4501 39.7184 10.7038L39.7045 15.3754L32.59 11.2686L32.6039 6.59703V6.59425Z" fill="white"/>
<path d="M44.2287 34.0312L27.5177 24.382L14.3487 32.0613L16.4912 33.2995L13.2914 35.1581C11.341 36.2905 8.16073 36.2905 6.19915 35.1581C4.23479 34.0257 4.22644 32.1837 6.17689 31.0513L9.58808 29.0675L7.27315 27.7319L3.86195 29.7158C0.63996 31.5883 0.656654 34.6239 3.90091 36.4964C7.14237 38.3662 12.3844 38.369 15.6064 36.4964L18.8061 34.6378L31.0597 41.7134L44.2287 34.034V34.0312Z" fill="#8AAE7A"/>
<path d="M59.7738 28.205H67.1443V32.5483H54.1451V9.44897H59.771V28.205H59.7738Z" fill="white"/>
<path d="M73.5521 31.2656C71.7436 30.2556 70.3051 28.8477 69.2422 27.0364C68.1766 25.2278 67.6451 23.1911 67.6451 20.9318C67.6451 18.6725 68.1766 16.6414 69.2422 14.844C70.3051 13.0466 71.7436 11.6415 73.5521 10.6315C75.3607 9.62147 77.3529 9.11786 79.5259 9.11786C81.6989 9.11786 83.6883 9.62147 85.4996 10.6315C87.311 11.6415 88.7356 13.0438 89.7789 14.844C90.8196 16.6442 91.3426 18.6725 91.3426 20.9318C91.3426 23.1911 90.8168 25.225 89.7622 27.0364C88.7105 28.8449 87.2831 30.2556 85.4857 31.2656C83.6855 32.2756 81.7017 32.7792 79.5287 32.7792C77.3556 32.7792 75.3662 32.2756 73.5549 31.2656H73.5521ZM83.9499 25.8038C85.0572 24.574 85.6109 22.9518 85.6109 20.9346C85.6109 18.9174 85.0572 17.2647 83.9499 16.0488C82.8425 14.8301 81.3678 14.2235 79.5231 14.2235C77.6784 14.2235 76.1703 14.8273 75.063 16.0321C73.9556 17.2396 73.4019 18.8729 73.4019 20.9346C73.4019 22.9964 73.9556 24.6046 75.063 25.8205C76.1703 27.0391 77.6561 27.6457 79.5231 27.6457C81.3901 27.6457 82.8397 27.0308 83.9499 25.8038Z" fill="white"/>
<path d="M94.893 14.8607C95.8807 13.0716 97.2552 11.6804 99.0221 10.6816C100.789 9.68268 102.789 9.18463 105.026 9.18463C107.767 9.18463 110.115 9.90805 112.069 11.3577C114.022 12.8045 115.327 14.78 115.983 17.2814H109.795C109.334 16.3159 108.682 15.5813 107.837 15.0749C106.991 14.5713 106.031 14.3181 104.957 14.3181C103.223 14.3181 101.818 14.9219 100.744 16.1267C99.6703 17.3342 99.1306 18.9452 99.1306 20.9652C99.1306 22.9852 99.6676 24.5962 100.744 25.8038C101.818 27.0113 103.223 27.6123 104.957 27.6123C106.031 27.6123 106.991 27.3619 107.837 26.8555C108.68 26.3519 109.334 25.6174 109.795 24.6491H115.983C115.324 27.1504 114.019 29.1204 112.069 30.5561C110.115 31.9918 107.77 32.7124 105.026 32.7124C102.789 32.7124 100.786 32.2144 99.0221 31.2155C97.2552 30.2166 95.8807 28.8282 94.893 27.0531C93.9053 25.2751 93.4128 23.2468 93.4128 20.9652C93.4128 18.6837 93.9053 16.6498 94.893 14.8607Z" fill="white"/>
<path d="M131.946 32.5483L124.18 22.3481V32.5483H118.554V9.44897H124.18V19.5852L131.882 9.44897H138.496L129.545 20.7677L138.824 32.5483H131.946Z" fill="white"/>
<g filter="url(#filter0_d_1286_18842)">
<path d="M130.499 55.1445H61.9804C57.3784 55.1445 53.6333 51.3994 53.6333 46.7973C53.6333 42.1953 57.3784 38.4502 61.9804 38.4502H130.499C135.101 38.4502 138.846 42.1953 138.846 46.7973C138.846 51.3994 135.101 55.1445 130.499 55.1445Z" fill="white"/>
</g>
<path d="M61.9804 39.2849C57.8375 39.2849 54.468 42.6544 54.468 46.7973C54.468 50.9403 57.8375 54.3097 61.9804 54.3097H130.499C134.642 54.3097 138.012 50.9403 138.012 46.7973C138.012 42.6544 134.642 39.2849 130.499 39.2849H61.9804Z" fill="#337116"/>
<g filter="url(#filter1_d_1286_18842)">
<path d="M75.0241 49.5836C74.5401 49.2248 74.2814 48.7129 74.2424 48.0453H76.1618C76.1813 48.2706 76.248 48.4375 76.3648 48.5405C76.4817 48.6434 76.6319 48.6962 76.8155 48.6962C76.9796 48.6962 77.1159 48.6545 77.2244 48.5711C77.3301 48.4876 77.3857 48.3736 77.3857 48.2261C77.3857 48.037 77.2967 47.8896 77.1187 47.7866C76.9406 47.6837 76.6541 47.5669 76.2564 47.4389C75.8335 47.2971 75.4942 47.1608 75.2327 47.03C74.9712 46.8993 74.7459 46.7046 74.554 46.4514C74.362 46.1983 74.2647 45.8645 74.2647 45.4556C74.2647 45.0467 74.3676 44.6823 74.5762 44.3874C74.7849 44.0898 75.0714 43.8645 75.4385 43.7115C75.8057 43.5585 76.223 43.4834 76.6875 43.4834C77.4413 43.4834 78.0422 43.6586 78.49 44.0119C78.9407 44.3652 79.1799 44.8575 79.2105 45.4945H77.255C77.2494 45.2998 77.1882 45.1524 77.077 45.055C76.9629 44.9577 76.8183 44.9076 76.6402 44.9076C76.5067 44.9076 76.3954 44.9466 76.3092 45.0272C76.223 45.1079 76.1813 45.2192 76.1813 45.3666C76.1813 45.489 76.2285 45.5947 76.3231 45.6837C76.4177 45.7727 76.5345 45.8478 76.6764 45.9146C76.8183 45.9786 77.0241 46.0592 77.2995 46.1566C77.7084 46.2984 78.0478 46.4375 78.3148 46.5738C78.5818 46.7101 78.8099 46.9048 79.0046 47.1524C79.1966 47.4 79.2939 47.7143 79.2939 48.0926C79.2939 48.4709 79.1966 48.8242 79.0046 49.1302C78.8127 49.4362 78.5345 49.6782 78.1701 49.8562C77.8057 50.0342 77.3774 50.1232 76.8795 50.1232C76.1256 50.1232 75.5081 49.9452 75.0241 49.5864V49.5836Z" fill="white"/>
<path d="M85.6445 43.5838V45.0164H83.9199V50.0567H82.1201V45.0164H80.4122V43.5838H85.6445Z" fill="white"/>
<path d="M90.2814 48.9997H87.9866L87.6388 50.054H85.7473L88.1062 43.5838H90.1813L92.5318 50.054H90.6319L90.2842 48.9997H90.2814ZM89.8308 47.6228L89.1326 45.531L88.4427 47.6228H89.828H89.8308Z" fill="white"/>
<path d="M97.4776 50.0568L95.4498 47.2195V50.0568H93.65V43.5866H95.4498V46.3766L97.4609 43.5866H99.536L97.1577 46.7271L99.6556 50.0595H97.4804L97.4776 50.0568Z" fill="white"/>
<path d="M102.757 43.5838V50.054H100.958V43.5838H102.757Z" fill="white"/>
<path d="M110.532 50.0568H108.732L106.337 46.4406V50.0568H104.537V43.5866H106.337L108.732 47.2501V43.5866H110.532V50.0568Z" fill="white"/>
<path d="M116.223 45.7143C116.12 45.5419 115.976 45.4111 115.798 45.3193C115.617 45.2276 115.405 45.183 115.161 45.183C114.707 45.183 114.351 45.3305 114.093 45.6225C113.831 45.9174 113.703 46.3096 113.703 46.8075C113.703 47.3639 113.842 47.7895 114.12 48.0788C114.399 48.3708 114.805 48.5155 115.336 48.5155C115.967 48.5155 116.415 48.2318 116.685 47.6615H114.877V46.368H118.237V48.1121C118.095 48.4543 117.89 48.777 117.617 49.0774C117.344 49.3778 116.999 49.6226 116.585 49.8173C116.168 50.0092 115.695 50.1066 115.163 50.1066C114.515 50.1066 113.94 49.9675 113.442 49.6893C112.944 49.4112 112.557 49.0217 112.284 48.5238C112.012 48.0259 111.876 47.4557 111.876 46.8131C111.876 46.1705 112.012 45.6086 112.284 45.1107C112.557 44.6128 112.941 44.2234 113.436 43.9452C113.931 43.667 114.504 43.528 115.152 43.528C115.967 43.528 116.641 43.7227 117.172 44.1149C117.703 44.5071 118.034 45.0412 118.162 45.7227H116.226L116.223 45.7143Z" fill="white"/>
</g>
<defs>
<filter id="filter0_d_1286_18842" x="51.6333" y="37.4502" width="89.213" height="20.6943" filterUnits="userSpaceOnUse" color-interpolation-filters="sRGB">
<feFlood flood-opacity="0" result="BackgroundImageFix"/>
<feColorMatrix in="SourceAlpha" type="matrix" values="0 0 0 0 0 0 0 0 0 0 0 0 0 0 0 0 0 0 127 0" result="hardAlpha"/>
<feOffset dy="1"/>
<feGaussianBlur stdDeviation="1"/>
<feColorMatrix type="matrix" values="0 0 0 0 0 0 0 0 0 0 0 0 0 0 0 0 0 0 0.3 0"/>
<feBlend mode="normal" in2="BackgroundImageFix" result="effect1_dropShadow_1286_18842"/>
<feBlend mode="normal" in="SourceGraphic" in2="effect1_dropShadow_1286_18842" result="shape"/>
</filter>
<filter id="filter1_d_1286_18842" x="73.2424" y="42.4834" width="46.5948" height="9.23983" filterUnits="userSpaceOnUse" color-interpolation-filters="sRGB">
<feFlood flood-opacity="0" result="BackgroundImageFix"/>
<feColorMatrix in="SourceAlpha" type="matrix" values="0 0 0 0 0 0 0 0 0 0 0 0 0 0 0 0 0 0 127 0" result="hardAlpha"/>
<feOffset dx="0.3" dy="0.3"/>
<feGaussianBlur stdDeviation="0.65"/>
<feColorMatrix type="matrix" values="0 0 0 0 0 0 0 0 0 0 0 0 0 0 0 0 0 0 0.6 0"/>
<feBlend mode="normal" in2="BackgroundImageFix" result="effect1_dropShadow_1286_18842"/>
<feBlend mode="normal" in="SourceGraphic" in2="effect1_dropShadow_1286_18842" result="shape"/>
</filter>
</defs>
</svg>
