<svg width="148" height="59" viewBox="0 0 148 59" fill="none" xmlns="http://www.w3.org/2000/svg">
<path d="M42.0195 16.711L42.0334 12.0394C42.0445 8.31654 39.4207 3.77849 36.182 1.90595C32.9378 0.0334084 30.3029 1.53589 30.2918 5.25871L30.2778 9.93032L27.565 8.36384L27.5205 24.3792L44.2315 34.0285L44.276 18.0131L42.0222 16.711H42.0195ZM32.6039 6.59425C32.6095 4.34331 34.2093 3.43069 36.1737 4.5659C38.1325 5.69833 39.7268 8.4501 39.7184 10.7038L39.7045 15.3754L32.59 11.2686L32.6039 6.59703V6.59425Z" fill="white"/>
<path d="M44.2287 34.0312L27.5177 24.382L14.3487 32.0613L16.4912 33.2995L13.2914 35.1581C11.341 36.2905 8.16073 36.2905 6.19915 35.1581C4.23479 34.0257 4.22644 32.1837 6.17689 31.0513L9.58808 29.0675L7.27315 27.7319L3.86195 29.7158C0.63996 31.5883 0.656654 34.6239 3.90091 36.4964C7.14237 38.3662 12.3844 38.369 15.6064 36.4964L18.8061 34.6378L31.0597 41.7134L44.2287 34.034V34.0312Z" fill="#8AAE7A"/>
<path d="M59.7738 28.205H67.1443V32.5483H54.1451V9.44897H59.771V28.205H59.7738Z" fill="white"/>
<path d="M73.5521 31.2656C71.7436 30.2556 70.3051 28.8477 69.2422 27.0364C68.1766 25.2278 67.6451 23.1911 67.6451 20.9318C67.6451 18.6725 68.1766 16.6414 69.2422 14.844C70.3051 13.0466 71.7436 11.6415 73.5521 10.6315C75.3607 9.62147 77.3529 9.11786 79.5259 9.11786C81.6989 9.11786 83.6883 9.62147 85.4996 10.6315C87.311 11.6415 88.7356 13.0438 89.7789 14.844C90.8196 16.6442 91.3426 18.6725 91.3426 20.9318C91.3426 23.1911 90.8168 25.225 89.7622 27.0364C88.7105 28.8449 87.2831 30.2556 85.4857 31.2656C83.6855 32.2756 81.7017 32.7792 79.5287 32.7792C77.3556 32.7792 75.3662 32.2756 73.5549 31.2656H73.5521ZM83.9499 25.8038C85.0572 24.574 85.6109 22.9518 85.6109 20.9346C85.6109 18.9174 85.0572 17.2647 83.9499 16.0488C82.8425 14.8301 81.3678 14.2235 79.5231 14.2235C77.6784 14.2235 76.1703 14.8273 75.063 16.0321C73.9556 17.2396 73.4019 18.8729 73.4019 20.9346C73.4019 22.9964 73.9556 24.6046 75.063 25.8205C76.1703 27.0391 77.6561 27.6457 79.5231 27.6457C81.3901 27.6457 82.8397 27.0308 83.9499 25.8038Z" fill="white"/>
<path d="M94.893 14.8607C95.8807 13.0716 97.2552 11.6804 99.0221 10.6816C100.789 9.68268 102.789 9.18463 105.026 9.18463C107.767 9.18463 110.115 9.90805 112.069 11.3577C114.022 12.8045 115.327 14.78 115.983 17.2814H109.795C109.334 16.3159 108.682 15.5813 107.837 15.0749C106.991 14.5713 106.031 14.3181 104.957 14.3181C103.223 14.3181 101.818 14.9219 100.744 16.1267C99.6703 17.3342 99.1306 18.9452 99.1306 20.9652C99.1306 22.9852 99.6676 24.5962 100.744 25.8038C101.818 27.0113 103.223 27.6123 104.957 27.6123C106.031 27.6123 106.991 27.3619 107.837 26.8555C108.68 26.3519 109.334 25.6174 109.795 24.6491H115.983C115.324 27.1504 114.019 29.1204 112.069 30.5561C110.115 31.9918 107.77 32.7124 105.026 32.7124C102.789 32.7124 100.786 32.2144 99.0221 31.2155C97.2552 30.2166 95.8807 28.8282 94.893 27.0531C93.9053 25.2751 93.4128 23.2468 93.4128 20.9652C93.4128 18.6837 93.9053 16.6498 94.893 14.8607Z" fill="white"/>
<path d="M131.946 32.5483L124.18 22.3481V32.5483H118.554V9.44897H124.18V19.5852L131.882 9.44897H138.496L129.545 20.7677L138.824 32.5483H131.946Z" fill="white"/>
<g filter="url(#filter0_d_1286_18841)">
<path d="M130.499 55.1445H61.9804C57.3784 55.1445 53.6333 51.3994 53.6333 46.7973C53.6333 42.1953 57.3784 38.4502 61.9804 38.4502H130.499C135.101 38.4502 138.846 42.1953 138.846 46.7973C138.846 51.3994 135.101 55.1445 130.499 55.1445Z" fill="white"/>
</g>
<path d="M61.9804 39.2849C57.8375 39.2849 54.468 42.6544 54.468 46.7973C54.468 50.9403 57.8375 54.3097 61.9804 54.3097H130.499C134.642 54.3097 138.012 50.9403 138.012 46.7973C138.012 42.6544 134.642 39.2849 130.499 39.2849H61.9804Z" fill="#337116"/>
<g filter="url(#filter1_d_1286_18841)">
<path d="M66.9774 43.5557L64.7626 47.8406V49.9552H63.2045V47.8406L60.9897 43.5557H62.7593L64.0003 46.2379L65.2301 43.5557H66.9802H66.9774Z" fill="white"/>
<path d="M69.1643 43.5557V49.958H67.6062V43.5557H69.1643Z" fill="white"/>
<path d="M71.8549 44.805V46.0988H73.9417V47.3036H71.8549V48.7087H74.2172V49.958H70.2968V43.5557H74.2172V44.805H71.8549Z" fill="white"/>
<path d="M76.7881 48.7532H78.8304V49.958H75.2272V43.5557H76.7853V48.7532H76.7881Z" fill="white"/>
<path d="M83.7468 43.9564C84.2504 44.2235 84.6427 44.5992 84.9182 45.0833C85.1936 45.5674 85.3327 46.1239 85.3327 46.7555C85.3327 47.3871 85.1936 47.938 84.9182 48.4249C84.6427 48.9118 84.2504 49.2875 83.7412 49.5546C83.2348 49.8217 82.645 49.9552 81.9772 49.9552H79.5788V43.553H81.9772C82.6533 43.553 83.2404 43.6865 83.7468 43.9536V43.9564ZM83.2543 48.1244C83.5826 47.8017 83.7468 47.3454 83.7468 46.7555C83.7468 46.1656 83.5826 45.7065 83.2543 45.3782C82.926 45.0499 82.4669 44.8857 81.877 44.8857H81.1397V48.6058H81.877C82.4669 48.6058 82.926 48.4444 83.2543 48.1216V48.1244Z" fill="white"/>
<path d="M95.391 43.5557V49.958H93.8329V46.1183L92.4 49.958H91.1423L89.7011 46.1099V49.958H88.1429V43.5557H89.9849L91.7823 47.9881L93.5602 43.5557H95.3938H95.391Z" fill="white"/>
<path d="M100.758 48.8256H98.3682L97.9842 49.9552H96.351L98.6659 43.553H100.472L102.787 49.9552H101.137L100.753 48.8256H100.758ZM100.358 47.6208L99.5646 45.2781L98.78 47.6208H100.358Z" fill="white"/>
<path d="M103.379 45.0554C103.652 44.5602 104.033 44.1734 104.523 43.898C105.012 43.6225 105.566 43.4834 106.187 43.4834C106.946 43.4834 107.597 43.6837 108.137 44.0844C108.677 44.4851 109.039 45.0332 109.222 45.726H107.508C107.38 45.4589 107.199 45.2558 106.966 45.1139C106.732 44.9748 106.465 44.9052 106.167 44.9052C105.686 44.9052 105.299 45.0721 105.001 45.406C104.704 45.7399 104.553 46.1879 104.553 46.7471C104.553 47.3064 104.704 47.7543 105.001 48.0882C105.299 48.4221 105.689 48.5891 106.167 48.5891C106.465 48.5891 106.732 48.5195 106.966 48.3804C107.199 48.2413 107.38 48.0381 107.508 47.7683H109.222C109.039 48.4611 108.677 49.0064 108.137 49.4043C107.597 49.8022 106.946 50.0025 106.187 50.0025C105.566 50.0025 105.012 49.8634 104.523 49.5879C104.033 49.3125 103.652 48.9257 103.379 48.4332C103.107 47.9408 102.97 47.3787 102.97 46.7471C102.97 46.1155 103.107 45.5507 103.379 45.0554Z" fill="white"/>
<path d="M115.727 43.5557V49.958H114.169V47.3231H111.743V49.958H110.185V43.5557H111.743V46.0626H114.169V43.5557H115.727Z" fill="white"/>
<path d="M118.407 43.5557V49.958H116.849V43.5557H118.407Z" fill="white"/>
<path d="M125.265 49.958H123.707L121.1 46.0098V49.958H119.542V43.5557H121.1L123.707 47.5234V43.5557H125.265V49.958Z" fill="white"/>
<path d="M127.956 44.805V46.0988H130.043V47.3036H127.956V48.7087H130.318V49.958H126.398V43.5557H130.318V44.805H127.956Z" fill="white"/>
</g>
<defs>
<filter id="filter0_d_1286_18841" x="51.6333" y="37.4502" width="89.213" height="20.6943" filterUnits="userSpaceOnUse" color-interpolation-filters="sRGB">
<feFlood flood-opacity="0" result="BackgroundImageFix"/>
<feColorMatrix in="SourceAlpha" type="matrix" values="0 0 0 0 0 0 0 0 0 0 0 0 0 0 0 0 0 0 127 0" result="hardAlpha"/>
<feOffset dy="1"/>
<feGaussianBlur stdDeviation="1"/>
<feColorMatrix type="matrix" values="0 0 0 0 0 0 0 0 0 0 0 0 0 0 0 0 0 0 0.3 0"/>
<feBlend mode="normal" in2="BackgroundImageFix" result="effect1_dropShadow_1286_18841"/>
<feBlend mode="normal" in="SourceGraphic" in2="effect1_dropShadow_1286_18841" result="shape"/>
</filter>
<filter id="filter1_d_1286_18841" x="59.9897" y="42.4834" width="71.9284" height="9.1191" filterUnits="userSpaceOnUse" color-interpolation-filters="sRGB">
<feFlood flood-opacity="0" result="BackgroundImageFix"/>
<feColorMatrix in="SourceAlpha" type="matrix" values="0 0 0 0 0 0 0 0 0 0 0 0 0 0 0 0 0 0 127 0" result="hardAlpha"/>
<feOffset dx="0.3" dy="0.3"/>
<feGaussianBlur stdDeviation="0.65"/>
<feColorMatrix type="matrix" values="0 0 0 0 0 0 0 0 0 0 0 0 0 0 0 0 0 0 0.6 0"/>
<feBlend mode="normal" in2="BackgroundImageFix" result="effect1_dropShadow_1286_18841"/>
<feBlend mode="normal" in="SourceGraphic" in2="effect1_dropShadow_1286_18841" result="shape"/>
</filter>
</defs>
</svg>
