<svg width="22" height="18" viewBox="0 0 22 18" fill="none" xmlns="http://www.w3.org/2000/svg">
<path d="M11.7848 14.674C11.9249 13.5372 11.8282 12.5052 11.4579 11.5037C11.0763 10.4717 10.5128 9.58454 9.50493 9.05C9.01064 8.78756 8.35695 8.60723 7.95605 8.64265C8.01884 8.67646 8.05587 8.70061 8.09612 8.71833C9.6772 9.4187 10.5354 10.6552 10.7914 12.341C10.9234 13.212 10.772 14.0702 10.6803 14.9332C10.6513 15.1972 10.6352 15.4629 10.6304 15.7285C10.6255 16.0618 10.7189 16.1278 11.0425 16.0795C11.9152 15.9459 12.7846 15.7849 13.6621 15.6996C14.633 15.6046 15.6103 15.5675 16.586 15.5337C17.1994 15.5128 17.7581 15.7044 18.2315 16.1069C18.7741 16.569 18.7129 17.0907 18.0817 17.432C17.7629 17.6043 17.4264 17.6155 17.0787 17.5576C16.3622 17.4384 15.6473 17.3096 14.9276 17.2114C13.844 17.0617 12.7959 17.2726 11.7558 17.5527C11.1987 17.7025 10.6384 17.8474 10.0733 17.9681C9.55162 18.0792 9.22317 17.9005 8.98327 17.4207C8.9414 17.337 8.89793 17.2533 8.85929 17.1679C8.11383 15.5128 6.75977 14.7062 5.03056 14.4405C4.36721 14.3391 3.69421 14.302 3.02925 14.2054C1.81526 14.0283 0.931339 13.3247 0.222911 12.3716C0.0280938 12.1107 -0.105541 11.8048 0.111817 11.4812C0.309855 11.1866 0.778383 11.0014 1.13099 11.0996C1.36767 11.1656 1.58986 11.2832 1.84747 11.3894C1.79433 11.0771 1.75086 10.7728 1.6929 10.4717C1.22598 8.04371 2.93909 5.73166 5.30588 5.20195C7.07534 4.80587 8.78845 5.04416 10.4533 5.69624C11.1069 5.95224 11.722 6.2984 12.366 6.58016C12.7782 6.76049 13.2016 6.93116 13.6363 7.04547C14.0968 7.16622 14.4816 6.98751 14.7457 6.58177C15.0081 6.18087 15.0113 5.79284 14.6942 5.38549C14.4253 5.04255 14.1017 4.74308 13.8038 4.42429C13.3353 3.92195 12.8329 3.44537 12.4079 2.90922C11.8894 2.25553 11.6238 1.47465 11.4869 0.653519C11.4064 0.1705 11.5787 -0.027538 12.073 0.00305322C12.9279 0.0577954 13.6396 0.41845 14.1741 1.08985C14.451 1.43762 14.707 1.80471 14.9341 2.1863C15.4364 3.03158 16.1303 3.65629 16.9949 4.11516C17.6647 4.46937 18.3136 4.86061 18.9801 5.22288C20.273 5.92648 20.8414 7.10987 21.136 8.46877C21.2745 9.10474 20.9283 9.70529 20.2988 9.87435C19.8576 9.99189 19.3923 10.0176 18.9351 10.0676C18.4311 10.1223 17.9223 10.1384 17.42 10.2076C16.9257 10.2753 16.5312 10.5441 16.2302 10.937C16.0547 11.1656 15.8872 11.4039 15.7343 11.6486C15.211 12.4907 14.5042 13.1444 13.6573 13.6451C13.0616 13.9977 12.4433 14.3165 11.7832 14.6772L11.7848 14.674Z" fill="black"/>
</svg>
