<svg width="26" height="17" viewBox="0 0 26 17" fill="none" xmlns="http://www.w3.org/2000/svg">
<path d="M25.6184 2.08812C25.2467 1.60251 24.7895 2.34432 24.7895 2.34432C24.6187 2.71606 21.7051 5.42877 20.419 7.0564C20.4777 3.15981 22.7684 1.5305 23.475 0.830554C24.0963 -0.0653119 22.8454 -0.43538 22.6177 0.745154C21.9412 1.98932 20.2365 3.4227 19.5048 6.14212C18.8885 8.88163 17.1923 9.82103 15.5345 10.454C14.3188 -3.37416 -5.546 2.51512 1.85536 13.9989C0.718367 14.2551 0 14.2836 0 14.2836C3.46625 17.487 20.9147 16.5777 22.4469 8.42951C22.5607 7.72119 22.107 7.84678 21.6481 7.91543C21.0922 7.24227 23.7664 3.60355 25.2182 2.86007C25.3622 2.77467 25.9332 2.51679 25.6184 2.08979V2.08812ZM9.88132 11.3984C10.4657 6.84876 6.19068 5.22281 4.36881 7.42815C2.71104 9.43757 5.30654 11.4537 6.85379 10.1693C8.06447 9.16462 6.60596 7.5102 5.16923 8.22689C5.93783 7.19706 7.4382 7.40135 8.2001 8.61035C9.00555 9.88801 7.97404 12.8938 4.94484 12.0866C1.3731 11.1338 1.65275 6.40167 4.88456 5.42877C8.96201 4.20135 11.1539 8.00083 9.88299 11.3984H9.88132Z" fill="black"/>
</svg>
